<svg width="376" height="27" viewBox="0 0 376 27" fill="none" xmlns="http://www.w3.org/2000/svg">
<path d="M375.956 0.150024L374.306 6.45002H349.706L350.106 0.150024H375.956ZM371.906 10.15L370.406 16H357.506L356.506 19.7H369.356L369.106 26H344.006L348.256 10.15H371.906Z" fill="black"/>
<path d="M346.659 0.199951L331.709 19.75H325.359L326.709 26H315.909L309.559 0.199951H321.359L324.559 15.4L334.759 0.199951H346.659Z" fill="black"/>
<path d="M309.013 0.199951L294.063 19.75H287.713L289.063 26H278.263L271.913 0.199951H283.713L286.913 15.4L297.113 0.199951H309.013Z" fill="black"/>
<path d="M267.614 13.05C266.314 17.8166 264.364 21.15 261.764 23.05C258.764 25.1833 254.03 26.25 247.564 26.25C242.53 26.25 238.947 25.65 236.814 24.45C234.814 23.3166 233.814 21.4333 233.814 18.8C233.814 17.3 234.13 15.3833 234.764 13.05C235.03 12.0166 235.314 11.0666 235.614 10.2H246.464C245.43 12.3666 244.914 14.4166 244.914 16.35C244.914 18.7833 246.364 20 249.264 20C251.564 20 253.33 19.3166 254.564 17.95C255.497 16.9166 256.264 15.2833 256.864 13.05C257.23 11.6833 257.414 10.6166 257.414 9.84997C257.414 7.58331 255.93 6.44998 252.964 6.44998H238.964L239.264 0.0999756H254.664C259.73 0.0999756 263.33 0.666642 265.464 1.79997C267.497 2.93331 268.514 4.79998 268.514 7.39998C268.514 8.86664 268.214 10.75 267.614 13.05Z" fill="black"/>
<path d="M235.573 0.150024L232.073 6.45002H206.173C207.673 4.25003 209.773 2.65002 212.473 1.65002C215.206 0.650024 218.956 0.150024 223.723 0.150024H235.573ZM229.023 26.05H217.173C211.973 26.05 208.24 25.4334 205.973 24.2C203.706 22.9334 202.573 20.9 202.573 18.1C202.573 15.8334 203.156 13.1667 204.323 10.1H215.523C214.423 12.1 213.873 14.0667 213.873 16C213.873 18.5 215.473 19.75 218.673 19.75H228.923L229.023 26.05Z" fill="black"/>
<path d="M202.47 0.150024L200.82 6.45002H176.22L176.62 0.150024H202.47ZM198.42 10.15L196.92 16H184.02L183.02 19.7H195.87L195.62 26H170.52L174.77 10.15H198.42Z" fill="black"/>
<path d="M169.198 8.39997C168.232 12.1 165.948 14.25 162.348 14.85C163.515 15.15 164.315 15.9333 164.748 17.2C165.015 18 165.165 19.25 165.198 20.95L165.348 26H153.898L154.048 20.3C154.148 17.4666 153.098 16.05 150.898 16.05H147.498L144.848 26.05H133.898L138.148 10.2L154.148 10.15C156.615 10.15 158.015 9.56664 158.348 8.39997C158.382 8.16664 158.398 7.96664 158.398 7.79998C158.398 6.93331 157.315 6.49998 155.148 6.49998H139.748L139.948 0.0999756H158.498C162.498 0.0999756 165.365 0.499976 167.098 1.29998C168.832 2.09998 169.698 3.46664 169.698 5.39997C169.698 6.26664 169.532 7.26664 169.198 8.39997Z" fill="black"/>
<path d="M129.584 26H110.434L110.584 20.15H117.584L116.784 13.05C116.551 10.95 116.418 8.94995 116.384 7.04995C115.918 7.94995 114.751 9.94995 112.884 13.05L104.634 26H93.2844L111.934 0.199951H124.734L129.584 26Z" fill="#E31D1A"/>
<path d="M103.122 0.150024L99.722 6.45002H73.422L73.3719 0.150024H103.122ZM90.972 10.15L86.722 26H75.972L80.222 10.15H90.972Z" fill="#E31D1A"/>
<path d="M69.3305 26H50.1805L50.3305 20.15H57.3305L56.5305 13.05C56.2972 10.95 56.1639 8.94995 56.1305 7.04995C55.6639 7.94995 54.4972 9.94995 52.6305 13.05L44.3805 26H33.0305L51.6805 0.199951H64.4805L69.3305 26Z" fill="#E31D1A"/>
<path d="M36.3001 13.2C35.0334 17.8666 33.1667 21.1333 30.7001 23C28.0667 24.9666 24.0834 25.95 18.75 25.95C18.0167 25.95 16.55 25.9666 14.35 26C12.1834 26 11.1834 26 11.35 26H0.550049L4.80005 10.1H15.6L13 19.75H18.0001C21.8001 19.75 24.2834 17.55 25.4501 13.15C25.7834 11.9833 25.9501 10.9833 25.9501 10.15C25.9501 7.64998 24.5001 6.39998 21.6 6.39998H6.25005L6.50005 0.0999756H23.5501C28.2501 0.0999756 31.5501 0.533309 33.4501 1.39998C35.9167 2.49998 37.1501 4.58331 37.1501 7.64998C37.1501 9.18331 36.8667 11.0333 36.3001 13.2Z" fill="#E31D1A"/>
</svg>
